<svg width="572" height="693" viewBox="0 0 572 693" fill="none" xmlns="http://www.w3.org/2000/svg">
<ellipse cx="286" cy="334.718" rx="286" ry="284.5" fill="#D9D9D9" fill-opacity="0.75"/>
<path d="M107.071 306.253C108.925 305.156 110.371 305.751 112.523 305.836C112.907 308.792 112.522 312.129 110.335 314.153C108.147 316.177 103.823 315.753 102.947 312.904C102.118 310.206 104.643 307.689 107.071 306.253ZM94.485 264.739C96.333 267.041 100.071 269.352 101.722 266.904C102.194 266.204 102.259 265.313 102.556 264.523C103.228 262.737 105.255 261.969 107.114 262.186L79.713 245.796C80.218 246.793 80.852 247.755 81.507 248.572C85.833 253.961 90.159 259.35 94.485 264.739ZM70.148 350.999C70.08 351.417 69.91 350.626 69.842 351.044C64.893 355.373 60.772 360.646 57.769 366.495C60.647 368.262 64.493 367.674 67.38 365.921C70.267 364.168 72.403 361.439 74.473 358.771C75.266 357.748 76.094 356.636 76.153 355.343C77.497 353.612 77.605 351.324 77.121 349.187C74.683 349.036 72.203 349.68 70.148 350.999ZM61.483 234.892L59.247 233.554C59.94 234.073 60.695 234.574 61.483 234.892ZM457.464 348.096C458.959 342.019 459.258 334.968 463.995 330.878C465.99 329.155 468.537 328.219 470.713 326.731C475.148 323.7 478.42 317.792 479.158 312.553C479.814 307.896 479.613 303.108 480.796 298.556C483.1 289.686 490.377 282.7 492.44 273.771C492.482 273.591 492.495 273.406 492.532 273.226L377.259 342.176L436.857 377.825C437.532 377.126 438.229 376.448 438.883 375.73C443.054 371.147 450.528 368.509 453.357 362.8C455.093 359.296 452.824 357.912 453.359 355.085C453.922 352.095 456.702 351.192 457.464 348.096ZM92.719 305.162C93.622 305.19 94.424 304.628 95.15 304.09C97.336 302.472 99.788 300.183 99.144 297.54C98.634 295.446 96.291 294.12 95.963 291.99C95.739 290.532 96.536 289.087 96.453 287.613C95.899 277.781 83.252 288.27 81.227 291.465C80.676 292.334 80.183 293.341 80.373 294.351C80.492 294.982 80.866 295.532 81.248 296.049C83.844 299.564 87.219 302.501 91.058 304.588C91.578 304.87 92.128 305.143 92.719 305.162ZM95.327 418.076C99.911 417.712 104.898 416.052 107.755 415.414C111.853 414.5 116.369 415.008 120.401 414.217L154.453 393.849C154.514 393.668 154.588 393.492 154.646 393.31C154.979 392.256 155.26 391.123 154.973 390.056C154.672 388.938 153.801 388.078 152.966 387.276C147.541 382.067 140.84 376.448 133.454 377.866C131.118 378.315 128.556 379.431 126.517 378.204C125.617 377.662 125.014 376.745 124.517 375.82C121.843 370.848 121.374 364.921 118.698 359.95C116.022 354.979 109.361 351.181 104.798 354.505C103.7 355.305 102.878 356.418 102.074 357.513C98.937 361.786 95.8 366.058 92.662 370.331C92 371.233 91.305 372.242 91.391 373.358C91.538 375.271 93.805 376.231 95.719 376.35C97.634 376.47 99.744 376.231 101.286 377.373C104.109 379.464 102.632 383.896 100.911 386.959C106.45 388.428 111.344 382.678 117.038 382.032C117.642 381.963 118.277 381.958 118.831 382.209C121.273 383.313 119.595 387.007 117.683 388.885C113.578 392.916 109.473 396.948 105.368 400.979C110.161 400.629 114.954 400.28 119.748 399.93C120.71 401.839 119.844 404.274 118.261 405.712C116.678 407.149 114.545 407.796 112.464 408.29C107.863 409.383 103.132 409.929 98.402 409.926C93.759 409.922 89.547 409.06 84.939 409.666C84.857 417.067 89.799 418.514 95.327 418.076ZM113.731 271.697C115.438 271.695 116.364 269.657 116.461 267.953C116.464 267.896 116.463 267.837 116.466 267.78L110.104 263.975C110.179 264.1 110.286 264.198 110.345 264.336C111.512 267.037 110.788 271.7 113.731 271.697ZM125.902 288.209C128.787 285.058 131.463 281.716 133.918 278.219L125.253 273.036C122.525 277.085 120.745 281.774 120.293 286.637C120.188 287.768 120.22 289.079 121.091 289.808C122.529 291.015 124.635 289.593 125.902 288.209ZM140.683 291.9C138.353 292.714 137.064 295.144 135.997 297.369C134.568 300.347 133.107 303.465 133.174 306.768C133.241 310.071 135.356 313.585 138.624 314.07C140.836 314.399 143.468 313.424 145.114 314.939C146.806 316.495 145.834 319.495 143.987 320.863C142.14 322.231 139.757 322.597 137.65 323.517C135.543 324.436 133.5 326.392 133.839 328.665C134.043 330.033 135.066 331.136 135.492 332.453C132.711 335.463 128.032 335.597 123.971 335.047C119.911 334.497 115.65 333.502 111.825 334.97C107.999 336.438 105.407 341.75 108.222 344.727C108.991 345.539 110.027 346.041 111.06 346.469C119.564 349.996 129.611 349.587 137.801 345.379C139.667 344.42 141.597 343.239 143.687 343.427C145.158 343.559 146.472 344.359 147.727 345.138C150.848 347.077 153.968 349.015 157.089 350.954C150.657 352.08 143.432 347.484 137.873 350.909C136.378 351.83 135.165 353.28 133.473 353.747C131.718 354.23 129.884 353.543 128.151 352.986C126.419 352.429 124.416 352.025 122.867 352.98C120.191 354.629 123.435 361.179 124.717 363.041C126.514 365.651 129.473 368.975 132.128 370.773C134.711 372.522 137.808 373.304 140.836 374.055C152.577 376.969 156.689 378.145 165.26 368.428C173.092 359.549 180.925 350.671 188.757 341.792C192.014 338.1 195.271 334.408 198.528 330.716C199.113 330.053 199.713 329.363 199.982 328.521C200.733 326.165 198.627 323.858 196.456 322.674C194.285 321.49 191.717 320.675 190.363 318.606C193.891 319.625 197.418 320.644 200.946 321.664C201.961 321.957 203.075 322.326 203.595 323.245C203.985 323.935 203.944 324.782 203.829 325.566C203.083 330.656 199.529 335.243 194.787 337.237C193.962 337.584 193.055 337.895 192.532 338.621C190.891 340.896 194.47 343.288 197.219 343.84C200.648 344.528 204.076 345.215 207.505 345.903C204.325 348.676 199.517 348.061 195.46 349.219C188.841 351.109 188.763 357.198 183.418 361.537C180.866 363.609 179.461 367.012 179.808 370.281C181.659 371.243 183.511 372.205 185.362 373.166C185.719 374.817 183.595 375.888 181.906 375.909C180.217 375.931 178.244 375.648 177.097 376.888C176.173 377.886 176.343 379.17 177.053 380.332L240.845 342.175L148.323 286.833C150.496 290.475 153.475 293.635 157.059 295.905C151.875 298.661 146.222 289.965 140.683 291.9ZM501.889 173.233C498.302 171.117 493.445 170.59 490.104 173.076C488.571 174.216 487.416 175.922 485.634 176.61C481.158 178.336 476.664 172.641 471.954 173.547C470.245 173.876 468.83 175.037 467.237 175.737C464.069 177.129 460.43 176.624 457.01 176.094C446.834 174.516 436.659 172.937 426.483 171.359C425.103 171.145 423.722 170.931 422.342 170.717C420.603 170.447 418.776 170.185 417.121 170.785C416.712 170.933 416.331 171.134 415.964 171.36C414.974 171.97 414.101 172.797 413.18 173.523C408.443 177.256 401.7 178.262 396.08 176.074C393.237 174.967 390.644 173.114 388.053 171.36C384.517 168.965 380.984 166.754 376.822 166.88C373.065 166.994 369.812 169.015 366.668 171.36C361.819 174.977 357.23 179.372 351.463 178.78C349.913 178.621 348.398 178.086 346.841 178.14C343.676 178.249 341.161 180.68 338.737 182.72C334.461 186.318 329.505 189.106 324.209 190.891C319.958 192.324 315.509 193.112 311.272 194.583C302.125 197.196 297.417 203.88 290.892 209.929C291.995 199.164 305.907 194.304 307.622 182.533C307.69 182.068 307.719 181.548 307.43 181.178C307.193 180.875 306.801 180.75 306.433 180.64C300.071 178.748 292.674 177 287.225 180.789C284.971 182.357 283.382 184.693 281.386 186.579C279.39 188.465 276.607 189.955 273.967 189.198C274.342 186.333 276.104 183.848 278.02 181.685C281.8 177.416 286.424 173.916 291.52 171.361C296.673 168.778 302.31 167.159 308.057 166.703C310.127 166.538 312.239 166.512 314.211 165.865C317.256 164.866 319.64 162.502 321.734 160.076C325.504 156.306 327.257 150.833 329.984 146.307C330.445 145.541 330.919 144.735 330.967 143.843C331.015 142.95 330.478 141.958 329.595 141.818C329.046 141.731 328.506 141.98 328.006 142.222C323.607 144.351 319.314 146.407 314.759 148.111C310.917 149.548 305.215 152.535 301.2 150.509C299.263 149.532 297.734 147.926 296.148 146.445C293.016 143.523 289.3 140.902 285.04 140.446C284.485 140.387 283.894 140.354 283.44 140.03C282.985 139.707 282.783 138.963 283.203 138.596C283.336 138.48 283.509 138.42 283.677 138.366C286.667 137.413 289.997 137.569 292.884 138.8C296.827 140.48 300.199 144.121 304.48 143.927C307.707 143.78 310.381 141.436 312.539 139.032C313.617 137.831 314.71 136.324 314.356 134.75C313.59 131.338 309.3 129.095 312.33 125.163C313.874 123.16 317.488 123.235 319.53 121.828C326.86 116.779 330.951 107.225 338.388 101.786C343.629 97.9529 349.843 95.3689 354.318 90.6649C360.459 84.2089 363.018 74.1078 371.024 70.1978C375.646 67.9408 381.523 68.1358 385.245 64.5858C386.817 63.0858 387.796 61.0849 388.742 59.1289C392.778 50.7849 396.815 42.4399 400.851 34.0959C396.757 34.8599 393.211 30.4149 393.247 26.2499C393.282 22.0859 395.708 18.3679 398.042 14.9189C400.376 11.4699 402.793 7.74286 402.807 3.57886C399.39 4.81786 395.42 4.42187 392.315 2.53287C391.278 1.90187 390.26 1.08888 389.047 1.02088C387.848 0.953875 386.75 1.63486 385.594 1.95886C380.344 3.42986 374.046 -2.33013 369.825 1.11987C371.819 3.62487 371.73 7.55486 369.626 9.96686C364.158 9.17886 358.69 8.38987 353.222 7.60187C350.527 7.21387 347.722 6.83285 345.128 7.65985C341.948 8.67385 339.612 11.3209 336.895 13.2589C331.791 16.8999 324.977 18.0209 318.976 16.2089C316.311 15.4039 313.791 14.0549 311.032 13.6829C302.425 12.5219 297.177 23.5989 288.994 23.9599C287.414 24.0299 285.851 23.6329 284.271 23.5769C276.679 23.3079 271.202 30.4879 267.117 36.8929C266.092 32.9209 267.566 28.4149 270.74 25.8159C272.109 24.6949 273.961 23.4739 273.683 21.7269C273.49 20.5129 272.308 19.7479 271.24 19.1389C269.23 17.9939 267.221 16.8489 265.211 15.7029C263.633 14.8039 261.973 13.8799 260.157 13.8249C255.182 13.6749 252.559 19.5159 251.113 24.2779C249.667 29.0399 246.522 34.7889 241.602 34.0379C239.756 31.9559 242.475 28.9659 244.91 27.6189C247.345 26.2719 250.228 23.5679 248.637 21.2849C248.167 20.6109 247.398 20.2199 246.661 19.8559C238.317 15.7349 229.972 11.6129 221.628 7.49185C220.585 6.97685 219.434 6.44687 218.3 6.70987C217.167 6.97287 217.704 8.75386 218.469 9.63086C216.976 9.31286 216.9 11.7009 216.856 13.2269C216.735 17.4199 211.59 19.3149 209.078 22.6749C205.631 27.2849 208.761 35.0959 214.437 36.0509C214.698 37.4819 214.228 39.0279 213.214 40.0709C211.663 38.6459 209.367 38.0819 207.333 38.6269C209.957 41.5749 211.44 45.5139 211.411 49.4599C208.219 48.1159 203.622 47.2339 202.071 50.3309C201.634 51.2029 201.586 52.2129 201.587 53.1879C201.594 58.0889 202.722 63.1449 205.718 67.0239C208.714 70.9029 213.817 73.3598 218.608 72.3258C211.627 76.6458 201.727 70.7259 194.556 74.7229C193.107 75.5299 191.705 76.7549 190.052 76.6209C188.187 76.4699 186.961 74.6879 185.455 73.5789C183.949 72.4699 181.07 72.6069 180.976 74.4759C180.952 74.9469 181.136 75.4009 181.324 75.8329C183.887 81.7289 187.949 86.9649 193.023 90.9129C191.47 94.9319 189.916 98.9519 188.363 102.971C188.099 103.653 187.821 104.358 187.294 104.866C185.344 106.748 182.223 104.621 180.46 102.564C178.697 100.506 175.743 98.2478 173.646 99.9638C173.615 104.237 175.201 108.503 178.017 111.718C180.344 114.374 183.398 116.262 186.225 118.378C195.758 125.514 203.002 135.66 206.656 146.994C199.234 139.124 191.411 125.976 178.9 130.047C177.879 130.379 176.808 130.899 176.368 131.878C175.86 133.01 176.388 134.349 177.145 135.333C179.791 138.769 184.753 139.563 187.782 142.666C188.398 143.297 188.932 144.308 188.39 145.004C188.069 145.415 187.498 145.52 186.978 145.561C184.98 145.717 182.944 145.354 181.123 144.518C179.638 143.836 178.301 142.851 176.781 142.253C172.649 140.629 168.31 147.203 166.443 139.455C165.826 136.896 165.632 133.792 163.368 132.451C160.059 130.491 156.06 134.777 156.272 138.617C156.484 142.457 158.969 145.748 160.262 149.37C161.601 153.121 161.632 157.313 160.417 161.106C157.424 161.779 154.641 158.932 153.914 155.952C153.187 152.972 153.814 149.848 153.783 146.779C153.751 143.711 152.76 140.267 150.018 138.889C146.817 137.281 142.75 139.466 141.071 142.63C139.392 145.794 139.477 149.568 139.675 153.144C139.791 155.236 140.004 157.503 141.423 159.045C142.888 160.637 145.233 161.015 147.073 162.155C150.058 164.006 151.379 168.088 150.135 171.36C150.095 171.466 150.076 171.579 150.03 171.683C146.611 170.392 142.592 173.089 141.642 176.619C140.692 180.148 142.231 183.973 144.691 186.675C147.151 189.378 150.425 191.175 153.635 192.922C155.977 194.197 158.319 195.472 160.661 196.747C162.268 197.622 164.132 199.426 163.081 200.923C160.331 199.423 156.665 199.824 154.304 201.882C153.673 202.433 153.096 203.107 152.296 203.357C150.714 203.852 149.142 202.432 148.473 200.915C147.804 199.398 147.612 197.662 146.671 196.297C144.505 193.156 139.528 194.025 136.939 196.862C136.632 197.198 136.383 197.569 136.152 197.958L309.051 301.377L509.93 181.222C507.615 178.181 505.166 175.166 501.889 173.233ZM207.084 557.231C208.799 556.126 209.01 553.72 208.829 551.687C208.608 549.208 208.074 546.758 207.243 544.412C206.831 543.25 206.346 542.111 206.049 540.914C205.531 538.829 205.601 536.651 205.459 534.507C204.995 527.507 202.162 520.685 197.529 515.413C192.512 509.706 188.577 513.243 186.089 520.075C182.279 530.538 181.864 548.728 186.156 553.271C188.235 555.472 191.473 556.022 194.47 556.452C197.233 556.848 199.995 557.245 202.758 557.642C204.225 557.852 205.838 558.033 207.084 557.231ZM117.91 507.488C117.238 505.566 116.366 503.714 115.263 502.003C114.793 501.273 114.278 500.532 113.765 499.783C113.739 499.745 113.713 499.706 113.686 499.668L100.595 507.488L91.464 512.942C92.964 515.403 95.924 517.403 95.772 520.285C95.715 521.378 95.187 522.392 94.57 523.296C93.008 525.587 90.809 527.432 89.513 529.884C88.218 532.336 88.187 535.857 90.483 537.412C93.174 539.235 96.872 537.09 98.737 534.428C100.601 531.766 101.736 528.453 104.381 526.564C107.808 524.116 112.819 524.778 116.103 522.142C119.263 519.605 119.676 514.905 118.881 510.931C118.648 509.76 118.305 508.615 117.91 507.488ZM183.412 458.124L177.547 461.632C177.713 461.634 177.88 461.639 178.043 461.63C180.279 461.516 181.987 459.958 183.412 458.124ZM183.56 494.579C182.163 492.024 179.374 490.46 177.976 487.907C176.933 486.003 176.775 483.755 176.639 481.588C176.242 475.252 175.98 470.331 175.583 463.996C175.126 464.094 174.842 463.745 174.758 463.301C174.752 463.267 174.749 463.233 174.745 463.197L152.743 476.339C152.73 476.389 152.719 476.44 152.706 476.491C152.421 477.571 152.12 478.649 151.911 479.746C155.629 479.302 159.046 476.851 160.659 473.471C162.841 477.315 160.235 482.003 157.859 485.731C155.483 489.459 153.326 494.557 156.133 497.972C157.985 500.225 161.402 500.634 164.173 499.725C166.944 498.816 169.222 496.854 171.421 494.939C171.976 498.331 169.201 501.239 166.852 503.748C165.731 504.946 164.674 506.202 163.657 507.488C155.814 517.403 151.108 529.789 150.516 542.424C150.202 549.123 150.899 556.279 147.572 562.102C146.222 564.464 144.266 566.472 143.182 568.968C141.868 571.994 141.967 575.419 142.089 578.715C142.141 580.113 142.362 581.785 143.625 582.386C144.296 582.706 145.083 582.613 145.818 582.501C151.101 581.701 156.418 580.248 160.769 577.146C163.417 575.258 165.804 572.343 165.441 569.111C165.221 567.149 164.024 565.445 163.431 563.562C161.417 557.164 166.528 550.979 168.814 544.673C172.12 535.551 169.57 524.764 174.275 516.279C176.062 513.057 178.733 510.434 180.947 507.488C181.237 507.101 181.548 506.729 181.819 506.328C184.149 502.874 185.559 498.235 183.56 494.579ZM429.903 455.261C427.148 455.516 424.447 453.715 421.702 454.144C416.905 454.893 415.799 461.103 413.563 465.412C409.816 472.633 399.655 475.611 392.603 471.555C391.267 470.787 390.014 469.799 388.516 469.433C387.019 469.067 385.452 469.365 383.912 469.423C375.502 469.739 367.979 462.912 359.586 463.529C356.141 463.782 351.275 464.435 350.523 461.063C359.05 461.808 367.762 460.335 375.571 456.829C385.155 452.526 393.123 445.349 400.076 437.42L309.051 382.974L193.616 451.925C193.594 451.971 193.571 452.015 193.549 452.061C192.619 454.044 191.837 456.12 191.09 458.161C189.996 461.151 188.901 464.14 187.807 467.13C187.012 469.302 186.212 471.495 185.896 473.786C185.001 480.279 188.182 486.823 192.854 491.419C193.271 491.829 193.74 492.247 194.32 492.321C195.847 492.516 196.517 490.468 196.614 488.932C196.933 483.886 197.253 478.839 197.572 473.793C200.626 475.064 202.075 479.196 200.484 482.096C199.89 483.179 198.945 484.106 198.689 485.315C198.426 486.56 198.952 487.822 199.467 488.986C201.841 494.352 204.215 499.718 206.589 505.085C206.944 505.888 207.365 506.737 207.876 507.489C208.728 508.743 209.83 509.727 211.294 509.768C212.786 509.81 214 508.797 214.815 507.489C215.174 506.912 215.464 506.283 215.652 505.652C217.524 499.365 213.972 492.896 210.819 487.143C207.666 481.391 204.773 474.342 207.81 468.528C210.616 474.66 213.422 480.791 216.228 486.923C218.411 486.925 219.321 486.683 219.871 484.57C222.836 473.197 224.748 461.549 225.573 449.824C230.911 453.202 226.374 462.952 231.034 467.217C234.388 464.797 234.091 459.776 233.227 455.731C232.363 451.687 231.452 446.931 234.215 443.854C231.944 452.882 237.439 462.715 245.626 467.146C252.717 470.983 262.004 471.852 266.594 478.48C261.817 477.206 256.773 478.12 251.832 478.307C246.891 478.494 241.417 477.689 238.183 473.949C232.583 473.882 229.103 480.328 228.925 485.925C228.747 491.522 230.499 497.175 229.395 502.665C228.154 502.634 226.914 502.603 225.674 502.571C225.673 504.212 225.766 505.852 225.918 507.486C226.123 509.683 226.448 511.869 226.926 514.023C227.454 516.404 228.198 518.84 229.852 520.632C231.424 522.335 233.635 523.264 235.693 524.33C241.858 527.524 247.305 532.589 249.68 539.113C252.056 545.637 250.836 553.667 245.705 558.346C243.744 560.135 241.33 561.377 239.399 563.198C233.746 568.53 232.081 579.366 230.855 586.757C230.015 591.826 229.793 597.584 225.986 601.036C223.886 602.941 220.863 603.922 219.474 606.394C217.98 609.053 218.929 612.5 217.741 615.309C216.54 618.149 213.351 619.872 212.472 622.828C211.571 625.859 213.394 628.935 214.713 631.809C216.817 636.392 217.746 641.507 217.388 646.537C215.072 646.564 212.756 646.591 210.44 646.619C208.944 642.105 207.448 637.591 205.952 633.077C205.612 632.051 205.131 630.884 204.091 630.59C203.051 630.296 201.522 631.264 202.474 631.775C200.175 638.176 197.977 645.69 201.655 651.41C202.883 653.32 204.656 654.801 206.253 656.416C210.413 660.621 213.479 665.899 215.073 671.595C216.33 676.144 219.54 695.588 228.888 691.709C233.106 689.958 227.529 668.232 227.325 663.036C227.099 657.282 231.154 655.995 235.545 653.571C234.904 657.058 237.822 660.764 241.361 660.961C242.985 661.051 244.645 660.512 246.22 660.92C248.359 661.474 249.668 663.556 250.882 665.403C255.879 673.004 262.838 679.303 270.899 683.519C271.597 683.884 272.355 684.243 273.136 684.148C274.882 683.936 275.544 681.79 275.81 680.052C276.595 674.934 277.38 669.817 278.165 664.699C278.988 659.334 268.817 656.322 270.915 651.316C273.629 652.208 275.542 654.568 277.784 656.338C280.026 658.108 283.348 659.287 285.644 657.588C287.371 656.31 288.44 653.543 290.568 653.84C290.533 656.694 290.973 659.554 291.864 662.267C292.334 663.698 292.956 665.129 294.035 666.18C297.339 669.399 304.08 666.273 303.758 661.671C303.864 665.872 308.089 669.197 312.291 669.222C316.493 669.248 320.363 666.613 322.837 663.217C325.311 659.821 326.61 655.727 327.748 651.683C329.711 653.391 332.895 653.477 334.948 651.879C341.978 646.405 349.522 657.868 349.193 642.455C349.127 639.351 350.485 635.392 353.589 635.376C354.802 635.37 355.925 636.026 357.13 636.158C360.823 636.563 363.161 632.321 366.462 630.618C372.075 627.723 379.279 632.679 385.07 630.158C387.74 628.996 389.536 626.455 391.961 624.844C396.104 622.093 401.521 622.353 406.187 620.632C413.48 617.943 418.146 610.793 424.827 606.82C428.046 604.906 437.262 601.469 436.809 596.617C436.724 595.708 436.291 594.873 436.054 593.991C434.414 587.899 442.19 586.253 444.93 582.305C446.771 579.651 448.28 576.733 450.534 574.42C452.788 572.107 456.062 570.439 459.209 571.163C460.625 571.488 461.905 572.268 463.323 572.587C464.68 572.892 465.214 571.177 465.586 569.836C465.958 568.495 465.686 567.043 466.037 565.697C467.264 560.984 474.26 561.048 477.606 557.51C481.182 553.727 479.335 547.599 477.286 542.814C475.3 538.176 473.315 533.538 471.329 528.9C470.913 527.929 470.488 526.887 470.673 525.847C470.882 524.673 471.811 523.782 472.68 522.966C477.833 518.121 482.55 512.841 487.181 507.49C488.269 506.233 489.356 504.974 490.439 503.713C492.72 501.057 495.106 498.164 495.45 494.68C495.457 494.61 495.444 494.541 495.45 494.471L429.903 455.261ZM120.166 495.955C120.795 496.237 121.439 496.487 122.096 496.696C123.436 497.122 124.886 497.392 126.242 497.022C128.385 496.438 129.805 494.413 130.723 492.391C131.24 491.253 131.641 490.075 131.994 488.88C132.012 488.82 132.033 488.76 132.05 488.7L120.024 495.883C120.072 495.905 120.117 495.933 120.166 495.955Z" fill="#1D334C"/>
<path d="M135.371 475.493C134.522 477.771 133.994 480.153 133.493 482.542L138.079 485.097L132.049 488.699L120.023 495.882C118.288 495.087 116.671 494.031 115.263 492.742C114.542 492.082 113.838 491.292 113.723 490.321C113.631 489.542 113.934 488.775 114.248 488.056C115.794 484.52 118.234 481.467 119.967 478.019C120.364 477.229 120.869 476.502 121.426 475.818C123.609 473.138 126.881 471.338 130.336 471.079C127.169 470.734 124.048 466.062 125.027 463.03C126.006 459.998 128.637 457.847 131.14 455.875C135.041 452.802 138.942 449.73 142.843 446.657C144.213 445.578 145.656 444.464 147.37 444.139C149.084 443.814 151.138 444.562 151.686 446.218C152.033 447.267 151.719 448.412 151.338 449.45C147.82 459.047 138.942 465.915 135.371 475.493ZM81.936 234.677C82.46 235.198 83.017 235.79 83.055 236.528C83.138 238.129 81.008 238.707 79.838 239.803C78.2 241.337 78.631 243.658 79.713 245.796L107.114 262.186L110.103 263.974L116.465 267.779L125.253 273.036L133.918 278.219C134.823 276.931 135.702 275.626 136.544 274.296C138.215 271.658 139.786 268.91 142.01 266.718C145.23 263.544 149.669 261.688 152.453 258.125C155.237 254.562 154.987 247.975 150.609 246.846C147.437 246.028 144.503 248.573 142.012 250.7C139.521 252.827 135.832 254.752 133.182 252.826C131.897 251.892 131.3 250.301 130.77 248.803C128.157 241.415 125.544 234.027 122.931 226.64C122.166 224.478 121.391 222.246 121.517 219.957C121.719 216.292 124.151 213.199 125.764 209.902C127.377 206.605 127.958 202.078 125.142 199.724C123.721 205.21 121.064 210.372 117.424 214.715C116.358 215.988 115.18 217.238 114.639 218.807C114.154 220.214 114.229 221.746 114.364 223.228C114.955 229.698 116.608 236.07 119.235 242.011C113.32 240.003 109.22 234.289 107.719 228.226C106.218 222.163 106.953 215.771 108.206 209.652C108.926 206.136 109.82 202.587 109.546 199.009C109.091 193.068 105.517 187.888 102.065 183.031C100.285 180.527 98.438 177.959 95.839 176.321C93.24 174.683 89.673 174.186 87.152 175.942C83.244 178.664 83.979 184.552 85.146 189.169C86.611 194.964 88.077 200.759 89.542 206.554C85.611 208.241 80.846 207.825 77.267 205.483C75.109 204.071 73.413 202.043 72.051 199.854C69.615 195.938 67.62 190.966 63.176 189.73C64.738 190.165 64.033 200.64 64.041 202.048C64.051 203.77 64.559 217.491 63.887 217.208C59.966 215.557 57.792 207.724 53.165 209.517C47.831 211.585 48.342 221.49 50.647 225.205C52.704 228.515 55.863 230.964 58.954 233.338C59.048 233.41 59.147 233.483 59.244 233.555L61.48 234.893C62.27 235.212 63.089 235.347 63.906 235.103C66.116 234.442 66.688 231.665 67.177 229.412C67.666 227.158 69.258 224.47 71.506 224.986C72.367 225.184 73.04 225.834 73.667 226.456C76.425 229.196 79.18 231.936 81.936 234.677ZM481.21 476.648C477.181 476.866 473.056 479.886 469.453 478.071C466.844 476.756 465.96 473.53 464.165 471.225C459.999 465.874 451.653 466.168 446.313 461.987C442.448 458.961 439.449 453.371 434.581 453.998C433.033 454.197 431.63 455.061 430.081 455.256C430.021 455.264 429.962 455.257 429.902 455.262L495.449 494.469C495.627 492.082 494.844 489.721 493.903 487.514C491.573 482.045 487.146 476.327 481.21 476.648ZM105.948 442.507C103.276 444.414 101.194 447.017 99.148 449.585C97.486 451.672 95.797 453.806 94.867 456.307C94.408 457.542 94.067 459.114 94.092 460.588C94.132 462.971 95.141 465.094 98.237 465.094C98.395 464.622 98.71 464.022 99.087 463.371C101.143 459.822 105.937 453.957 108.168 449.113C109.554 446.103 109.939 443.498 108.033 442.111C107.42 441.666 106.565 442.067 105.948 442.507ZM510.591 182.081C510.374 181.794 510.148 181.509 509.93 181.222L309.051 301.377L136.151 197.958C136.045 198.137 135.903 198.294 135.816 198.483C133.941 202.548 135.285 207.344 137.11 211.431C138.935 215.518 141.27 219.586 141.356 224.062C141.393 225.998 141.066 228.167 142.288 229.67C143.996 231.769 147.388 231.011 149.72 229.638C152.052 228.265 154.465 226.388 157.136 226.821C155.936 229.564 160.311 231.599 163.103 230.519C165.895 229.438 168.266 226.967 171.26 227.004C170.515 232.355 165.269 236.68 159.875 236.391C157.882 236.284 155.923 235.632 153.932 235.765C151.941 235.898 149.775 237.207 149.682 239.2C149.582 241.347 151.931 242.86 154.076 243.011C156.221 243.162 158.342 242.45 160.491 242.472C165.356 242.522 169.326 246.189 172.77 249.624C174.111 250.961 175.558 252.874 174.68 254.551C171.721 254.073 169.84 251.259 167.756 249.104C165.672 246.949 162.023 245.339 159.86 247.414C157.699 249.487 159.088 253.122 158.453 256.048C157.666 259.675 153.66 263.158 155.596 266.325C156.142 267.217 157.069 267.796 157.976 268.317C162.989 271.197 168.429 273.333 174.062 274.634C172.857 277.02 171.559 279.515 169.329 280.989C167.099 282.463 163.644 282.446 162.14 280.236C161.398 279.145 161.252 277.739 160.541 276.628C158.562 273.536 153.89 274.416 150.438 275.665C149.171 276.123 147.841 276.625 146.982 277.663C145.364 279.619 146.071 282.569 147.181 284.853C147.514 285.539 147.931 286.179 148.322 286.833L240.844 342.175L177.052 380.332C177.748 381.471 178.963 382.493 180.191 383.01C182.673 384.055 185.844 384.94 186.445 387.564C181.049 384.196 172.213 384.931 170.269 390.988C169.121 394.564 170.832 398.601 169.636 402.161C168.543 405.415 165.361 407.395 162.896 409.784C160.431 412.173 158.566 416.174 160.646 418.905C162.237 420.994 165.703 421.637 166.222 424.211C167.163 428.882 157.246 430.573 158.65 435.126C160.85 435.023 163.051 434.921 165.251 434.818C166.089 434.779 167.038 434.781 167.622 435.384C168.508 436.299 167.917 437.808 167.286 438.916C162.077 448.065 156.868 457.215 151.66 466.364C154.398 466.408 157.1 464.996 158.69 462.777C156.033 466.962 154.026 471.548 152.743 476.339L174.745 463.197L177.364 461.632C177.426 461.633 177.486 461.631 177.548 461.631L183.413 458.123C183.465 458.056 183.52 457.992 183.572 457.924C184.091 457.239 184.575 456.524 185.029 455.832C192.968 443.744 203.164 433.143 214.935 424.741C209.862 427.71 209.716 435.175 205.679 439.447C203.845 441.388 201.33 442.528 199.257 444.212C196.747 446.252 195.012 448.979 193.617 451.924L309.052 382.973L400.077 437.419C400.925 436.451 401.765 435.477 402.584 434.491C405.107 431.453 409.042 427.992 412.434 430.014C413.569 430.691 414.33 431.886 415.486 432.527C417.617 433.709 420.248 432.658 422.445 431.605C425.54 430.122 428.635 428.639 431.729 427.155C436.837 424.707 442.846 420.58 441.705 415.032C441.319 413.154 439.709 412.031 437.959 411.247C432.449 408.778 426.938 406.31 421.428 403.841C422.865 399.956 424.181 395.212 421.566 391.999C419.89 389.939 416.987 389.214 414.347 389.504C411.708 389.794 409.251 390.947 406.851 392.083C399.24 395.685 391.628 399.288 384.017 402.89C383.696 401.363 384.933 399.992 386.067 398.921C389.438 395.738 392.871 392.624 396.833 390.184C399.254 388.693 403.221 384.948 405.956 384.774C407.845 384.653 409.833 385.037 411.573 384.291C412.432 383.923 413.159 383.304 413.987 382.87C417.154 381.212 421.027 382.549 424.206 384.185C425.509 384.856 426.953 385.598 428.37 385.222C429.176 385.008 429.844 384.457 430.475 383.912C432.704 381.991 434.813 379.938 436.857 377.822L377.259 342.173L492.532 273.223C493.323 269.386 493.199 265.415 493.563 261.509C494.066 256.122 495.567 250.83 497.966 245.98C504.516 232.741 517.622 222.788 520.842 208.372C522.924 199.049 516.349 189.705 510.591 182.081ZM125.128 412.362C127.622 410.645 130.065 407.61 132.937 408.568C134.277 409.015 135.195 410.265 136.465 410.883C138.942 412.087 141.866 410.587 144.012 408.861C148.827 404.987 152.483 399.706 154.453 393.849L120.401 414.217C122.082 413.887 123.686 413.354 125.128 412.362ZM110.578 490.047C111.296 487.655 113.495 485.762 113.605 483.267C113.762 479.728 109.34 477.445 105.911 478.336C102.482 479.227 99.99 482.101 97.725 484.826C95.348 487.685 92.972 490.545 90.595 493.404C90.264 490.949 89.932 488.495 89.6 486.041C85.271 485.017 81.443 489.411 80.369 493.728C79.295 498.045 79.763 502.711 78.125 506.848C78.04 507.064 77.928 507.275 77.832 507.489C76.006 511.567 72.475 515.37 73.481 519.674C77.206 519.203 80.397 516.612 82.484 513.49C83.503 511.966 84.143 509.628 84.947 507.489C85.616 505.709 86.398 504.063 87.626 503.163C89.523 501.772 97.427 503.39 97.529 503.257C96.384 504.751 95.124 506.15 93.802 507.489C92.782 508.523 91.733 509.53 90.618 510.46C90.658 511.362 90.995 512.173 91.464 512.943L100.595 507.489L113.686 499.669C111.601 496.624 109.564 493.425 110.578 490.047Z" fill="#F7F7E2"/>
<path d="M322.843 328.311C322.843 323.777 321.043 319.43 317.837 316.224C314.632 313.019 310.284 311.218 305.751 311.218C301.218 311.218 296.87 313.019 293.664 316.224C290.459 319.43 288.658 323.777 288.658 328.311C288.658 336.668 302.328 353.265 305.751 357.29C309.174 353.265 322.843 336.668 322.843 328.311ZM293.337 328.311C293.337 325.855 294.065 323.455 295.429 321.413C296.794 319.371 298.733 317.78 301.001 316.841C303.27 315.901 305.766 315.655 308.174 316.134C310.582 316.613 312.795 317.796 314.531 319.532C316.267 321.269 317.449 323.481 317.928 325.889C318.407 328.297 318.161 330.794 317.221 333.062C316.281 335.331 314.69 337.27 312.648 338.634C310.607 339.998 308.206 340.726 305.751 340.725C302.459 340.722 299.304 339.412 296.977 337.085C294.649 334.757 293.341 331.602 293.337 328.311Z" fill="#1D334C"/>
<path d="M316.111 328.311C316.111 326.261 315.503 324.257 314.364 322.552C313.226 320.848 311.607 319.519 309.713 318.735C307.819 317.951 305.735 317.745 303.725 318.145C301.714 318.545 299.867 319.532 298.418 320.982C296.968 322.431 295.981 324.278 295.581 326.289C295.181 328.299 295.387 330.383 296.171 332.277C296.956 334.171 298.284 335.789 299.988 336.928C301.693 338.067 303.697 338.675 305.747 338.675C308.494 338.672 311.129 337.579 313.072 335.636C315.015 333.693 316.108 331.058 316.111 328.311Z" fill="#FF7A1C"/>
<path d="M305.757 368.627C321.527 368.627 332.514 364.02 332.514 359.885C332.514 356.139 324.174 352.573 313.03 351.503C312.562 352.122 312.106 352.716 311.661 353.286C316.623 354.039 321.248 355.835 321.248 358.953C321.248 362.926 313.265 365.07 305.753 365.07C298.046 365.07 290.243 362.968 290.243 358.953C290.243 355.832 295.066 354.02 299.831 353.284C299.389 352.717 298.931 352.121 298.463 351.503C287.331 352.573 279 356.139 279 359.885C279 364.02 289.987 368.627 305.757 368.627Z" fill="#1D334C"/>
<path d="M304.982 359.54C304.777 359.309 303.322 357.647 301.316 355.154C295.733 355.797 292.294 357.594 292.294 358.953C292.294 360.612 297.537 363.02 305.754 363.02C313.971 363.02 319.199 360.612 319.199 358.953C319.199 357.594 315.765 355.796 310.184 355.153C308.177 357.647 306.721 359.309 306.517 359.54C306.42 359.649 306.302 359.737 306.169 359.797C306.037 359.856 305.893 359.887 305.748 359.887C305.602 359.887 305.458 359.856 305.326 359.797C305.193 359.737 305.075 359.649 304.979 359.54H304.982Z" fill="#FF7A1C"/>
</svg>
